<svg version="1.1" id="Layer_1" xmlns="http://www.w3.org/2000/svg" xmlns:xlink="http://www.w3.org/1999/xlink" x="0px" y="0px"
	 width="100%" viewBox="0 0 500 500" enable-background="new 0 0 500 500" xml:space="preserve">
<path fill="#000000" opacity="1.000000" stroke="none" 
	d="
M345.000000,501.000000 
	C230.000031,501.000000 115.500053,501.000000 1.000041,501.000000 
	C1.000000,417.666718 1.000000,334.333435 1.000000,251.000137 
	C1.000000,167.666824 1.000000,84.333511 1.000000,1.000151 
	C167.666550,1.000101 334.333099,1.000101 500.999756,1.000050 
	C500.999817,167.666519 500.999817,334.333038 500.999908,500.999786 
	C449.166656,501.000000 397.333344,501.000000 345.000000,501.000000 
M282.547577,368.908539 
	C282.714264,368.622742 282.880981,368.336945 283.533051,367.892120 
	C283.705353,367.609375 283.877655,367.326630 284.535980,366.898102 
	C284.707764,366.617035 284.879578,366.335999 285.538116,365.897980 
	C285.709778,365.615051 285.881439,365.332123 286.672241,364.787048 
	C288.210449,363.080627 289.998505,361.538696 291.247375,359.641785 
	C301.337433,344.316193 302.690033,328.004211 295.284973,311.395020 
	C290.932312,301.632141 284.262909,293.425934 273.669525,288.793732 
	C273.669525,288.793732 273.310822,288.856049 273.048340,288.353180 
	C272.700378,288.215393 272.352417,288.077606 272.013062,287.998016 
	C272.013062,287.998016 272.044556,287.948303 271.855927,287.398132 
	C270.574402,287.237000 269.292908,287.075836 267.843231,286.201935 
	C263.429077,284.224854 259.098267,281.715088 253.453903,283.839142 
	C253.060150,283.846039 252.666382,283.852936 252.026123,283.279510 
	C241.588226,282.166626 232.439468,285.791016 224.397949,291.847656 
	C212.153229,301.070007 205.401428,313.502014 204.464981,329.007507 
	C203.494461,345.077271 208.897232,358.376617 221.366913,369.507874 
	C223.786316,371.151001 226.205734,372.794098 229.043655,374.964447 
	C233.036041,376.498230 237.028412,378.032013 241.692490,379.915222 
	C243.766479,379.957733 245.840454,380.000275 248.187454,380.682922 
	C257.889771,381.624725 267.004456,380.169220 275.004639,374.078430 
	C275.004639,374.078430 275.029236,374.055481 275.722473,373.931305 
	C277.499054,372.639008 279.275604,371.346680 281.542542,369.910461 
	C281.714355,369.627655 281.886200,369.344849 282.547577,368.908539 
M270.355255,196.263519 
	C270.599945,196.498413 270.844635,196.733307 271.382599,197.584229 
	C275.415405,203.230225 279.448212,208.876236 283.852142,215.081757 
	C287.350739,219.706528 290.849365,224.331299 294.438599,229.458954 
	C294.751648,229.837723 295.064697,230.216507 295.541565,231.074188 
	C295.795258,231.288956 296.048950,231.503723 296.477844,232.356430 
	C297.679565,233.876694 298.881317,235.396957 300.317230,237.506729 
	C301.215881,238.668137 302.114532,239.829544 303.084930,241.575653 
	C303.571014,242.177567 304.057129,242.779465 304.755096,243.904984 
	C305.166870,244.271973 305.578644,244.638947 306.201630,245.656616 
	C307.938599,247.958466 309.675537,250.260315 311.768372,253.152222 
	C314.480164,256.798096 317.191956,260.444000 320.041687,264.776398 
	C323.672882,269.869476 327.304077,274.962585 331.085541,280.765503 
	C339.074341,295.719543 343.402588,311.140381 339.701324,328.414642 
	C336.265289,344.451141 331.216858,359.458923 322.448303,369.376373 
	C340.322113,358.204163 355.208679,340.509216 361.095490,315.234833 
	C362.017975,310.471039 362.908478,305.700745 363.869263,300.944702 
	C366.303436,288.894928 365.003082,276.762634 360.454346,265.855286 
	C354.653717,251.946045 346.537109,239.002640 339.158997,225.021713 
	C337.928040,223.172958 336.697113,221.324203 335.148560,218.931900 
	C334.480560,217.910461 333.812592,216.889038 333.002716,215.371094 
	C332.876343,215.254089 332.750000,215.137085 332.372681,214.564194 
	C331.942535,214.020050 331.512390,213.475906 331.047821,212.219925 
	C329.477478,209.710709 327.907166,207.201508 326.206024,204.207733 
	C325.959991,203.988983 325.713959,203.770233 325.240875,202.934814 
	C324.333649,201.463455 323.426392,199.992111 322.196533,197.906509 
	C313.460022,184.125031 304.723480,170.343552 295.713593,155.909531 
	C294.824463,154.604630 293.935333,153.299744 293.060608,151.415039 
	C292.796814,151.149887 292.532990,150.884735 292.272766,150.776596 
	C292.272766,150.776596 292.429230,150.763107 292.252899,150.193787 
	C291.862152,149.765717 291.471375,149.337631 291.126892,148.883301 
	C291.126892,148.883301 291.106476,148.833710 290.947632,148.157852 
	C288.043976,144.012711 285.140350,139.867554 282.303192,135.096130 
	C278.814789,129.390839 275.326385,123.685555 271.786591,117.394829 
	C271.210083,116.924164 270.633575,116.453499 270.043762,115.964096 
	C270.043762,115.964096 270.026459,115.948990 269.964996,115.224480 
	C268.022034,112.108406 266.079071,108.992332 264.073364,105.167198 
	C262.299591,102.451927 260.525848,99.736656 258.711700,96.479553 
	C258.331299,95.873947 257.950928,95.268333 257.602905,94.463890 
	C257.602905,94.463890 257.408966,94.409363 257.112244,93.812363 
	C255.637283,91.347015 254.162323,88.881668 252.164398,85.542221 
	C245.112839,97.061890 238.599457,107.702370 231.805588,118.457329 
	C231.636078,118.624344 231.609604,118.811615 231.211548,119.389145 
	C231.125229,119.581985 231.038895,119.774826 230.411850,120.325806 
	C229.828323,121.479965 229.244812,122.634117 228.812637,123.833458 
	C228.812637,123.833458 228.686646,123.738228 228.165009,124.119247 
	C227.280746,125.620071 226.396484,127.120895 225.501846,128.635742 
	C225.501846,128.635742 225.497864,128.617691 224.942291,128.989792 
	C223.990799,130.528244 223.047913,132.072083 222.086487,133.604324 
	C207.890182,156.229416 193.691406,178.852966 179.032883,201.930511 
	C178.109467,203.631393 177.186050,205.332275 175.977493,207.673279 
	C171.918716,213.840317 167.688232,219.902557 163.844696,226.200912 
	C159.056000,234.048111 154.586472,242.090057 149.394775,250.383331 
	C146.440659,257.944244 143.486557,265.505127 140.374207,273.709595 
	C140.374939,274.150208 140.375687,274.590790 139.994034,275.727081 
	C139.638565,278.115967 139.283112,280.504852 138.525726,283.395966 
	C138.475388,284.237549 138.425034,285.079163 138.240112,286.843109 
	C138.313736,290.263062 138.387344,293.683044 138.289230,297.711426 
	C138.513031,298.486938 138.736816,299.262482 138.980789,300.841583 
	C139.078171,301.904205 139.175537,302.966827 139.215042,304.513672 
	C139.215042,304.513672 139.352539,304.981537 139.270233,305.777710 
	C142.219452,314.784912 145.168655,323.792145 148.078537,332.886169 
	C148.078537,332.886169 148.171829,332.905701 148.207809,333.622253 
	C150.158615,336.711395 152.109406,339.800507 154.038528,342.954498 
	C154.038528,342.954498 154.106857,342.952454 154.175049,343.569275 
	C154.805725,344.341003 155.436401,345.112732 156.034988,345.945465 
	C156.034988,345.945465 156.103867,345.948059 156.220490,346.612213 
	C157.851074,348.655670 159.481659,350.699158 161.107513,352.872498 
	C161.107513,352.872498 161.235306,352.896027 161.435150,353.420807 
	C161.886826,353.736542 162.338501,354.052307 162.744583,354.273926 
	C162.744583,354.273926 162.654999,354.327911 162.881973,354.851410 
	C163.426849,355.369049 163.971710,355.886658 164.597763,356.403870 
	C164.597763,356.403870 164.597214,356.322693 164.794693,356.826782 
	C165.091095,357.019653 165.387497,357.212524 165.643143,357.274811 
	C165.643143,357.274811 165.516388,357.326294 165.680115,357.895874 
	C166.105225,358.285645 166.530334,358.675415 166.992966,359.005432 
	C166.992966,359.005432 166.932846,359.042267 167.131210,359.680634 
	C169.099182,361.404022 171.067154,363.127441 173.599121,365.120880 
	C174.382843,365.797638 175.166580,366.474365 176.227921,367.728455 
	C178.068741,369.012482 179.909546,370.296509 181.750366,371.580566 
	C182.113190,371.128601 182.476013,370.676636 182.838852,370.224670 
	C180.912125,368.109558 178.985413,365.994476 176.972900,363.267914 
	C176.366119,362.495941 175.759354,361.723969 175.065613,360.261810 
	C174.384415,359.154022 173.703201,358.046234 172.893188,356.483948 
	C172.893188,356.483948 172.706650,356.049927 172.689117,355.338776 
	C171.452835,352.903198 170.216568,350.467651 168.856247,347.524994 
	C168.787704,347.365082 168.719147,347.205139 168.715149,346.376770 
	C168.140656,345.254700 167.566162,344.132599 167.000610,343.000000 
	C167.000610,343.000000 166.988907,343.004425 166.953873,342.191101 
	C165.602310,336.805847 164.250732,331.420563 162.854385,325.308624 
	C162.743576,324.837189 162.632767,324.365723 162.611984,323.506775 
	C162.611984,323.506775 162.486359,323.129272 162.633331,322.442566 
	C162.597031,321.977753 162.560730,321.512970 162.724884,320.131744 
	C163.445435,313.092438 163.863358,306.003723 165.000671,299.032410 
	C165.676865,294.887543 167.485184,290.927399 168.871002,286.841278 
	C168.871002,286.841278 168.844208,286.748535 169.326553,286.426605 
	C169.729279,285.566254 170.132004,284.705933 170.907608,283.251587 
	C172.455475,280.736755 173.859650,278.118866 175.576675,275.725403 
	C182.246338,266.428070 189.015396,257.202057 195.941772,247.869324 
	C195.941772,247.869324 195.893127,247.664825 196.400543,247.445160 
	C196.668045,246.991394 196.935547,246.537643 197.795044,245.688293 
	C197.953552,245.511673 198.112076,245.335037 198.182770,245.134125 
	C198.182770,245.134125 198.154373,245.284042 198.654251,244.701904 
	C201.762405,239.795013 204.870544,234.888123 208.328918,229.502548 
	C208.596573,228.785370 208.864227,228.068192 209.817245,227.289230 
	C210.315552,226.900452 210.813858,226.511688 211.721741,225.908463 
	C211.908585,225.651260 212.010788,225.363968 212.653473,224.872604 
	C213.268417,224.014053 213.883362,223.155518 214.299026,222.264832 
	C214.299026,222.264832 214.301361,222.466705 214.836899,222.174911 
	C214.948334,221.794144 215.059769,221.413361 215.071121,221.061844 
	C215.071121,221.061844 215.107910,221.159409 215.727585,220.870178 
	C218.801590,216.517136 221.875610,212.164093 225.493912,207.436951 
	C231.221237,199.605865 236.948578,191.774780 243.037842,183.552612 
	C243.062546,183.376709 243.087234,183.200821 243.533127,182.823746 
	C243.757477,182.561996 243.813599,182.268127 243.928345,181.509674 
	C243.928345,181.509674 244.036758,181.033554 244.011749,181.004684 
	C244.011749,181.004684 244.051086,181.028473 244.712906,180.802292 
	C247.428864,177.953995 250.144821,175.105698 252.885529,172.155869 
	C252.885529,172.155869 252.782883,172.136154 252.935425,172.692307 
	C253.244019,172.903793 253.552597,173.115280 253.842468,173.119232 
	C253.842468,173.119232 253.635498,173.143372 253.697815,173.763687 
	C254.114197,174.193817 254.530594,174.623947 255.067276,175.726349 
	C257.053589,178.148087 259.039886,180.569824 261.178955,183.663193 
	C263.482422,186.695526 265.785889,189.727844 268.313477,193.443542 
	C268.776306,193.993393 269.239136,194.543243 269.606110,195.451797 
	C269.746948,195.698563 269.958191,195.802612 270.355255,196.263519 
z"/>
<path fill="#0382FD" opacity="1.000000" stroke="none" 
	d="
M252.272629,283.859802 
	C252.666382,283.852936 253.060150,283.846039 253.853821,284.234924 
	C255.327789,285.535217 256.401825,286.439728 256.330078,286.379303 
	C255.115173,294.415771 253.444855,301.386108 253.153061,308.413727 
	C252.777069,317.468903 254.667847,326.725677 253.476776,335.613495 
	C251.819763,347.978180 256.164062,359.277740 257.572906,371.053375 
	C258.359009,377.623901 258.875916,378.219055 252.371033,379.616791 
	C250.921906,379.928162 249.401840,379.909515 247.914444,380.042816 
	C245.840454,380.000275 243.766479,379.957733 241.266235,379.480469 
	C240.214233,378.369598 239.588501,377.693420 239.174408,376.733643 
	C239.410645,374.085205 239.576416,371.711578 239.430069,369.357391 
	C239.133194,364.582153 238.350327,359.817902 238.343414,355.048279 
	C238.332199,347.323975 238.807602,339.599731 239.034912,331.874207 
	C239.252747,324.471344 239.174210,317.050415 239.675903,309.668030 
	C240.123383,303.083466 241.185944,296.540710 242.054718,289.625305 
	C244.039017,284.706268 248.569489,285.058197 252.272629,283.859802 
z"/>
<path fill="#048CFB" opacity="1.000000" stroke="none" 
	d="
M248.050949,380.362854 
	C249.401840,379.909515 250.921906,379.928162 252.371033,379.616791 
	C258.875916,378.219055 258.359009,377.623901 257.572906,371.053375 
	C256.164062,359.277740 251.819763,347.978180 253.476776,335.613495 
	C254.667847,326.725677 252.777069,317.468903 253.153061,308.413727 
	C253.444855,301.386108 255.115173,294.415771 256.330078,286.379303 
	C256.401825,286.439728 255.327789,285.535217 254.132599,284.334412 
	C259.098267,281.715088 263.429077,284.224854 267.922821,286.828430 
	C268.001129,287.634949 267.999847,287.814941 267.612793,288.057251 
	C266.486298,289.594025 265.333496,291.002319 265.083862,292.555725 
	C264.399902,296.811859 263.861176,301.120117 263.696869,305.424194 
	C263.456848,311.711121 263.219330,318.038116 263.648071,324.302338 
	C264.531372,337.207367 266.067047,350.068237 266.917358,362.974762 
	C267.397583,370.263458 267.595703,371.084656 274.991241,374.112488 
	C267.004456,380.169220 257.889771,381.624725 248.050949,380.362854 
z"/>
<path fill="#4E53FE" opacity="1.000000" stroke="none" 
	d="
M212.028351,225.046570 
	C212.010788,225.363968 211.908585,225.651260 211.196381,226.072632 
	C210.157990,226.608200 209.644943,226.979599 209.131897,227.351013 
	C208.864227,228.068192 208.596573,228.785370 207.778229,229.718658 
	C203.977585,229.567719 201.089157,228.941956 201.203827,224.604568 
	C201.306000,220.740143 201.082184,216.867126 201.149902,212.650101 
	C203.248474,207.225052 205.456619,202.229568 207.101593,197.055069 
	C211.861511,182.081985 216.394943,167.036926 221.252960,151.764786 
	C224.197495,146.986282 224.821777,140.876175 231.145172,139.297699 
	C231.863800,140.730896 232.447617,141.868500 232.943207,143.394440 
	C231.234879,153.190125 229.614761,162.597443 227.701263,172.193085 
	C226.383041,173.844513 225.038849,175.180771 224.397278,176.796097 
	C222.879288,180.617950 221.323532,184.491226 220.450272,188.489441 
	C218.377014,197.981918 212.957169,206.929337 215.616669,217.255447 
	C215.920441,218.434845 215.299881,219.852325 215.107910,221.159409 
	C215.107910,221.159409 215.071121,221.061844 214.920914,221.249420 
	C214.614258,221.780243 214.457825,222.123474 214.301361,222.466705 
	C214.301361,222.466705 214.299026,222.264832 214.067337,222.360870 
	C213.233215,223.320129 212.630783,224.183350 212.028351,225.046570 
z"/>
<path fill="#08BFE1" opacity="1.000000" stroke="none" 
	d="
M339.418793,225.642914 
	C346.537109,239.002640 354.653717,251.946045 360.454346,265.855286 
	C365.003082,276.762634 366.303436,288.894928 363.869263,300.944702 
	C362.908478,305.700745 362.017975,310.471039 360.704163,315.738831 
	C359.782745,316.624908 359.001770,316.889709 358.760132,317.406647 
	C355.064484,325.312500 351.737762,333.408051 347.685455,341.123413 
	C345.264587,345.732727 342.445801,350.455902 336.584320,352.393951 
	C337.312836,346.975983 339.152435,341.934448 339.948639,336.733215 
	C341.163605,328.796143 342.196381,320.754150 342.278412,312.746185 
	C342.338654,306.862366 340.752747,300.961670 340.238739,294.996460 
	C341.958893,295.838593 343.705322,296.481293 344.636169,297.731323 
	C345.992340,299.552521 346.761566,301.810760 347.781036,303.882660 
	C348.460022,303.706665 349.138977,303.530701 349.817963,303.354736 
	C349.409882,299.129028 349.001770,294.903351 348.593689,290.677643 
	C348.885559,290.653564 349.177460,290.629456 349.469330,290.605347 
	C351.635956,294.882935 353.802612,299.160492 356.060425,303.618073 
	C360.601410,298.848419 363.217194,293.966278 361.980316,287.760895 
	C361.101807,283.353699 358.959290,278.868500 359.361237,274.604797 
	C360.193298,265.778229 355.489349,259.085907 352.260773,251.800751 
	C351.556641,250.211945 349.494904,249.224777 348.044189,247.575699 
	C347.682892,245.459488 347.335846,243.728073 346.847595,241.810104 
	C346.502380,241.385574 346.274017,241.173889 345.936890,240.645782 
	C343.511536,235.571411 341.170624,230.839706 338.977661,225.992615 
	C339.125641,225.877213 339.418793,225.642899 339.418793,225.642914 
z"/>
<path fill="#0E66F2" opacity="1.000000" stroke="none" 
	d="
M252.149384,283.569641 
	C248.569489,285.058197 244.039017,284.706268 241.732605,289.777832 
	C238.881485,294.846558 236.430161,299.408539 233.547852,303.974609 
	C230.161057,304.232300 226.673630,303.041443 225.909790,307.916260 
	C225.520844,310.398468 223.819183,312.674988 222.710907,315.044464 
	C221.627930,317.352814 221.815399,320.371063 220.586670,322.613190 
	C217.338440,328.540466 213.295197,334.028656 209.959305,339.913208 
	C208.817978,341.926483 207.702744,345.136841 208.527176,346.874054 
	C211.794281,353.758331 214.298859,361.296936 221.002182,366.336914 
	C221.131470,367.333130 221.243073,367.992706 221.292252,368.712158 
	C221.229828,368.771973 221.105728,368.892365 221.105728,368.892365 
	C208.897232,358.376617 203.494461,345.077271 204.464981,329.007507 
	C205.401428,313.502014 212.153229,301.070007 224.397949,291.847656 
	C232.439468,285.791016 241.588226,282.166626 252.149384,283.569641 
z"/>
<path fill="#0497FC" opacity="1.000000" stroke="none" 
	d="
M274.997925,374.095459 
	C267.595703,371.084656 267.397583,370.263458 266.917358,362.974762 
	C266.067047,350.068237 264.531372,337.207367 263.648071,324.302338 
	C263.219330,318.038116 263.456848,311.711121 263.696869,305.424194 
	C263.861176,301.120117 264.399902,296.811859 265.083862,292.555725 
	C265.333496,291.002319 266.486298,289.594025 268.017670,288.059692 
	C269.887054,287.982666 270.965790,287.965485 272.044556,287.948303 
	C272.044556,287.948303 272.013062,287.998016 272.197052,288.162292 
	C272.690979,288.503082 273.000885,288.679565 273.310822,288.856049 
	C273.310822,288.856049 273.669525,288.793732 273.972778,289.154907 
	C274.843170,290.353912 275.410278,291.191742 275.774719,292.339233 
	C273.041931,300.047516 271.248230,307.509094 271.946838,315.478241 
	C272.858582,325.879333 273.320404,336.319092 274.114014,346.731659 
	C274.486969,351.625061 274.191010,356.923645 276.058228,361.232574 
	C277.456482,364.459290 277.814301,367.006866 276.985535,370.408447 
	C276.285431,371.832123 275.657349,372.943787 275.029236,374.055481 
	C275.029236,374.055481 275.004639,374.078430 274.997925,374.095459 
z"/>
<path fill="#4844F6" opacity="1.000000" stroke="none" 
	d="
M201.002228,212.997894 
	C201.082184,216.867126 201.306000,220.740143 201.203827,224.604568 
	C201.089157,228.941956 203.977585,229.567719 207.603119,229.958008 
	C204.870544,234.888123 201.762405,239.795013 198.422485,244.972504 
	C198.190720,245.243088 198.270615,245.158417 198.270615,245.158417 
	C198.112076,245.335037 197.953552,245.511673 197.270981,246.022003 
	C196.462326,246.792084 196.177734,247.228455 195.893127,247.664825 
	C195.893127,247.664825 195.941772,247.869324 195.525269,247.995804 
	C192.749847,249.592285 190.467270,252.153641 188.017502,252.325012 
	C181.031799,252.813675 174.337753,253.934586 168.019287,256.641052 
	C168.010391,255.515457 168.006424,254.765228 168.032104,253.651474 
	C169.053146,250.862015 170.044540,248.436066 171.342316,245.858368 
	C174.632614,242.695023 177.427063,239.460251 180.646927,236.726547 
	C184.968384,233.057632 187.299530,228.518890 188.320862,222.901398 
	C192.757858,219.527985 196.880035,216.262939 201.002228,212.997894 
z"/>
<path fill="#432DCD" opacity="1.000000" stroke="none" 
	d="
M139.352539,304.981537 
	C139.352539,304.981537 139.215042,304.513672 139.520752,304.118103 
	C139.868576,300.510071 139.910690,297.297607 140.326233,294.041443 
	C145.469467,292.327362 150.239288,290.656952 155.182602,289.271118 
	C158.326782,291.909180 158.679794,297.295166 163.901840,297.361115 
	C163.173370,301.825806 162.498413,305.907898 161.665924,310.264099 
	C161.371872,311.364777 161.235336,312.191406 161.095764,313.460449 
	C161.105682,316.261505 161.118637,318.620056 160.838470,321.177124 
	C158.659088,325.783173 155.727997,329.083496 151.065613,330.730713 
	C150.215118,331.031158 149.625427,332.069824 148.728455,332.796722 
	C148.541550,332.825745 148.171829,332.905701 148.171829,332.905701 
	C148.171829,332.905701 148.078537,332.886169 148.107880,332.443054 
	C145.756729,323.664673 143.376221,315.329346 140.881592,306.810425 
	C140.600677,306.391846 140.413620,306.174316 140.100525,305.778961 
	C139.833923,305.326172 139.619843,305.125488 139.352539,304.981537 
z"/>
<path fill="#483AE5" opacity="1.000000" stroke="none" 
	d="
M163.955353,296.978516 
	C158.679794,297.295166 158.326782,291.909180 155.211578,288.876617 
	C157.621536,281.455536 160.064255,274.668182 162.774307,267.989258 
	C164.295990,264.239014 166.259644,260.668091 168.024200,257.016388 
	C174.337753,253.934586 181.031799,252.813675 188.017502,252.325012 
	C190.467270,252.153641 192.749847,249.592285 195.428116,248.035889 
	C189.015396,257.202057 182.246338,266.428070 175.576675,275.725403 
	C173.859650,278.118866 172.455475,280.736755 170.447250,283.672516 
	C169.605988,284.978455 169.225082,285.863495 168.844208,286.748535 
	C168.844208,286.748535 168.871002,286.841278 168.520569,287.004883 
	C166.765213,290.438507 165.360291,293.708527 163.955353,296.978516 
z"/>
<path fill="#23A1F4" opacity="1.000000" stroke="none" 
	d="
M283.481018,214.522247 
	C279.448212,208.876236 275.415405,203.230225 271.205078,197.284668 
	C271.027588,196.985123 271.081787,196.949036 271.316803,197.091736 
	C272.055878,197.450714 272.559906,197.667007 273.314056,198.085510 
	C276.379028,201.979538 279.689026,200.095154 280.531342,197.451035 
	C284.011627,186.526505 293.856415,179.698578 297.962769,169.070160 
	C299.421265,165.295059 299.193024,163.504440 296.936859,160.698120 
	C296.583466,159.101898 296.285187,157.832001 295.986938,156.562088 
	C304.723480,170.343552 313.460022,184.125031 322.194458,198.355988 
	C322.192413,198.805466 321.870819,199.096024 321.591949,198.912491 
	C319.212860,196.792770 317.112671,194.856583 314.986694,192.554596 
	C314.283569,190.289017 313.606171,188.389221 313.321838,187.591782 
	C310.549500,187.393112 308.060608,187.894928 307.448883,187.045273 
	C305.497009,184.334198 303.516144,185.229752 302.052795,186.771301 
	C297.753174,191.300735 293.535339,195.946411 289.713531,200.878281 
	C286.785095,204.657318 283.644653,208.576935 283.961670,214.067535 
	C283.798096,214.215546 283.481018,214.522247 283.481018,214.522247 
z"/>
<path fill="#522FE5" opacity="1.000000" stroke="none" 
	d="
M168.019287,256.641052 
	C166.259644,260.668091 164.295990,264.239014 162.774307,267.989258 
	C160.064255,274.668182 157.621536,281.455536 155.038055,288.592072 
	C150.239288,290.656952 145.469467,292.327362 140.326538,293.565369 
	C140.094421,287.099152 140.235413,281.065277 140.376434,275.031403 
	C140.375687,274.590790 140.374939,274.150208 140.724701,273.219238 
	C142.294785,269.786560 143.514374,266.844269 145.097427,264.053955 
	C148.087418,263.465118 150.883820,263.076782 153.305008,261.909912 
	C158.309967,259.497833 163.115112,256.671173 168.002441,254.014999 
	C168.006424,254.765228 168.010391,255.515457 168.019287,256.641052 
z"/>
<path fill="#3689FA" opacity="1.000000" stroke="none" 
	d="
M282.236694,135.722397 
	C285.140350,139.867554 288.043976,144.012711 290.665710,148.604950 
	C285.950592,150.293839 281.788879,151.988007 279.983246,156.706726 
	C278.152618,161.490799 276.291473,166.282532 274.846710,171.189590 
	C273.317719,176.382858 272.263855,181.716003 270.998352,187.321442 
	C270.987274,188.098801 270.980194,188.542801 270.761627,189.195724 
	C269.729858,190.523163 268.909607,191.641663 268.089355,192.760178 
	C265.785889,189.727844 263.482422,186.695526 261.258179,183.032791 
	C261.725677,179.354889 261.488190,176.045349 262.631897,173.314209 
	C265.050934,167.537643 268.135040,162.033539 271.059662,156.477310 
	C272.520172,153.702606 274.648315,151.215683 275.731659,148.320618 
	C277.474792,143.662384 278.602661,138.773911 280.202576,134.103958 
	C281.022064,134.724274 281.629364,135.223343 282.236694,135.722397 
z"/>
<path fill="#3A7EFB" opacity="1.000000" stroke="none" 
	d="
M279.990448,133.982697 
	C278.602661,138.773911 277.474792,143.662384 275.731659,148.320618 
	C274.648315,151.215683 272.520172,153.702606 271.059662,156.477310 
	C268.135040,162.033539 265.050934,167.537643 262.631897,173.314209 
	C261.488190,176.045349 261.725677,179.354889 261.181824,182.696960 
	C259.039886,180.569824 257.053589,178.148087 254.936096,175.098755 
	C254.415115,174.028564 254.025299,173.585968 253.635498,173.143372 
	C253.635498,173.143372 253.842468,173.119232 253.714935,172.986328 
	C253.319244,172.614334 253.051056,172.375244 252.782867,172.136169 
	C252.782883,172.136154 252.885529,172.155869 252.749161,171.948669 
	C253.009995,169.768600 253.195618,167.722717 253.846176,165.837265 
	C255.452179,161.182602 257.271362,156.601501 259.342041,151.911591 
	C261.529999,149.399521 263.438202,147.007767 265.215607,144.522461 
	C267.016541,142.004288 268.217651,138.779907 270.547211,136.994186 
	C272.928619,135.168732 273.793457,133.653809 273.138367,130.851685 
	C272.872314,129.713684 273.289337,128.416000 273.395569,127.190987 
	C273.769684,127.028252 274.143799,126.865517 274.517914,126.702782 
	C276.342102,129.129425 278.166260,131.556061 279.990448,133.982697 
z"/>
<path fill="#5E6AF8" opacity="1.000000" stroke="none" 
	d="
M233.031433,143.006088 
	C232.447617,141.868500 231.863800,140.730896 231.221863,138.938049 
	C234.118988,130.852890 237.074249,123.423012 240.361877,115.915428 
	C245.075348,110.068268 249.438263,104.284836 253.850357,98.539185 
	C254.955338,97.100212 256.218506,95.782692 257.408966,94.409363 
	C257.408966,94.409363 257.602905,94.463890 257.525177,94.855606 
	C257.882324,95.838669 258.317200,96.430023 258.752075,97.021378 
	C260.525848,99.736656 262.299591,102.451927 264.028290,105.589378 
	C263.983215,106.011559 263.830170,106.146759 263.494324,106.036469 
	C260.506683,104.824913 259.080414,105.472839 258.942108,108.575020 
	C258.886627,109.819748 258.593353,111.574265 257.749634,112.181274 
	C250.903976,117.106453 249.733353,125.303284 245.623169,132.012268 
	C243.418564,132.927414 241.229355,133.465591 239.843155,134.823486 
	C237.320999,137.294205 235.275696,140.251709 233.031433,143.006088 
z"/>
<path fill="#487AF9" opacity="1.000000" stroke="none" 
	d="
M280.202576,134.103958 
	C278.166260,131.556061 276.342102,129.129425 274.517914,126.702782 
	C274.143799,126.865517 273.769684,127.028252 273.395569,127.190987 
	C273.289337,128.416000 272.872314,129.713684 273.138367,130.851685 
	C273.793457,133.653809 272.928619,135.168732 270.547211,136.994186 
	C268.217651,138.779907 267.016541,142.004288 265.215607,144.522461 
	C263.438202,147.007767 261.529999,149.399521 259.312195,151.525665 
	C257.630524,146.814514 256.315857,142.410004 255.084900,137.655273 
	C256.574677,129.207428 266.296570,124.174828 263.586884,114.489365 
	C263.403290,113.833115 264.499878,112.818695 265.306519,112.076828 
	C267.083435,113.438202 268.554932,114.693596 270.026459,115.948990 
	C270.026459,115.948990 270.043762,115.964096 270.118835,116.252853 
	C270.741943,117.021172 271.289978,117.500717 271.837982,117.980263 
	C275.326385,123.685555 278.814789,129.390839 282.269958,135.409271 
	C281.629364,135.223343 281.022064,134.724274 280.202576,134.103958 
z"/>
<path fill="#6538F1" opacity="1.000000" stroke="none" 
	d="
M149.979126,250.047913 
	C154.586472,242.090057 159.056000,234.048111 163.844696,226.200912 
	C167.688232,219.902557 171.918716,213.840317 176.413986,207.271027 
	C177.893585,206.240005 178.936707,205.611221 180.186432,205.293030 
	C179.609940,209.208481 179.013077,212.867035 177.993896,216.403885 
	C176.863800,220.325607 175.347961,224.136154 173.926086,228.345581 
	C171.894501,232.791199 169.936874,236.886353 167.613861,241.009689 
	C164.962952,242.466446 162.669083,243.881851 160.393890,245.326675 
	C156.890274,247.551605 153.399460,249.796707 149.934601,251.702332 
	C149.970352,250.930252 149.974747,250.489090 149.979126,250.047913 
z"/>
<path fill="#17ABC8" opacity="1.000000" stroke="none" 
	d="
M339.900452,295.068512 
	C340.752747,300.961670 342.338654,306.862366 342.278412,312.746185 
	C342.196381,320.754150 341.163605,328.796143 339.948639,336.733215 
	C339.152435,341.934448 337.312836,346.975983 336.584320,352.393951 
	C342.445801,350.455902 345.264587,345.732727 347.685455,341.123413 
	C351.737762,333.408051 355.064484,325.312500 358.760132,317.406647 
	C359.001770,316.889709 359.782745,316.624908 360.662109,316.144653 
	C355.208679,340.509216 340.322113,358.204163 322.448303,369.376373 
	C331.216858,359.458923 336.265289,344.451141 339.701324,328.414642 
	C343.402588,311.140381 339.074341,295.719543 331.115234,280.315430 
	C331.144958,279.865356 331.354218,279.674530 331.612183,279.884552 
	C334.546936,285.085876 337.223724,290.077179 339.900452,295.068512 
z"/>
<path fill="#426FFB" opacity="1.000000" stroke="none" 
	d="
M255.001221,138.005493 
	C256.315857,142.410004 257.630524,146.814514 258.975037,151.604935 
	C257.271362,156.601501 255.452179,161.182602 253.846176,165.837265 
	C253.195618,167.722717 253.009995,169.768600 252.736786,171.999435 
	C250.144821,175.105698 247.428864,177.953995 244.304367,180.597031 
	C243.551773,179.138657 242.499771,177.339096 242.977432,176.720230 
	C246.326859,172.380859 244.162613,168.224960 243.023499,163.618286 
	C244.703384,156.158752 246.353882,149.083405 248.288910,141.826752 
	C250.716064,140.432129 252.858643,139.218811 255.001221,138.005493 
z"/>
<path fill="#4557FA" opacity="1.000000" stroke="none" 
	d="
M215.417755,221.014801 
	C215.299881,219.852325 215.920441,218.434845 215.616669,217.255447 
	C212.957169,206.929337 218.377014,197.981918 220.450272,188.489441 
	C221.323532,184.491226 222.879288,180.617950 224.397278,176.796097 
	C225.038849,175.180771 226.383041,173.844513 227.964844,172.352219 
	C229.349976,173.218964 230.178177,174.114899 230.937531,175.372772 
	C230.708313,178.976074 230.958084,182.302689 230.305740,185.441833 
	C228.746506,192.945221 226.762253,200.360306 224.949615,207.811035 
	C221.875610,212.164093 218.801590,216.517136 215.417755,221.014801 
z"/>
<path fill="#3C2CB8" opacity="1.000000" stroke="none" 
	d="
M148.915344,332.767700 
	C149.625427,332.069824 150.215118,331.031158 151.065613,330.730713 
	C155.727997,329.083496 158.659088,325.783173 161.068939,321.190491 
	C161.902084,321.043365 162.212692,321.057648 162.524414,321.048157 
	C162.560730,321.512970 162.597031,321.977753 162.494965,322.872833 
	C162.289307,323.534180 162.344437,323.731232 162.521957,323.894287 
	C162.632767,324.365723 162.743576,324.837189 162.691956,325.984253 
	C164.015976,332.108032 165.502441,337.556244 166.988907,343.004425 
	C166.988907,343.004425 167.000610,343.000000 166.989960,343.346680 
	C167.536392,344.810608 168.093491,345.927887 168.650574,347.045166 
	C168.719147,347.205139 168.787704,347.365082 168.937958,348.147278 
	C170.248657,351.196320 171.477646,353.623138 172.706650,356.049927 
	C172.706650,356.049927 172.893188,356.483948 173.009949,357.043213 
	C173.802017,358.718994 174.477295,359.835480 175.152573,360.951996 
	C175.759354,361.723969 176.366119,362.495941 176.949265,363.913940 
	C176.600525,365.423706 176.275406,366.287415 175.950287,367.151123 
	C175.166580,366.474365 174.382843,365.797638 173.222885,364.665405 
	C170.875381,362.487366 168.904114,360.764832 166.932846,359.042267 
	C166.932846,359.042267 166.992966,359.005432 166.906784,358.741577 
	C166.385864,358.093903 165.951126,357.710083 165.516388,357.326294 
	C165.516388,357.326294 165.643143,357.274811 165.560364,357.089417 
	C165.184113,356.710266 164.890671,356.516479 164.597214,356.322693 
	C164.597214,356.322693 164.597763,356.403870 164.583817,356.066864 
	C163.931580,355.262543 163.293289,354.795227 162.654999,354.327911 
	C162.654999,354.327911 162.744583,354.273926 162.661636,354.057007 
	C162.130890,353.525391 161.683105,353.210693 161.235321,352.895996 
	C161.235306,352.896027 161.107513,352.872498 161.076752,352.459290 
	C159.398621,350.013397 157.751236,347.980713 156.103867,345.948059 
	C156.103867,345.948059 156.034988,345.945465 156.021179,345.596069 
	C155.373871,344.481903 154.740356,343.717194 154.106857,342.952454 
	C154.106857,342.952454 154.038528,342.954498 154.019806,342.558960 
	C152.305817,339.031494 150.610580,335.899597 148.915344,332.767700 
z"/>
<path fill="#2E90FA" opacity="1.000000" stroke="none" 
	d="
M271.002441,186.988052 
	C272.263855,181.716003 273.317719,176.382858 274.846710,171.189590 
	C276.291473,166.282532 278.152618,161.490799 279.983246,156.706726 
	C281.788879,151.988007 285.950592,150.293839 290.745117,148.942886 
	C291.106476,148.833710 291.126892,148.883301 291.176575,149.187393 
	C291.627258,149.915359 292.028259,150.339233 292.429230,150.763107 
	C292.429230,150.763107 292.272766,150.776596 292.356567,150.952209 
	C292.642303,151.416824 292.844238,151.705841 293.046204,151.994858 
	C293.935333,153.299744 294.824463,154.604630 295.850281,156.235809 
	C296.285187,157.832001 296.583466,159.101898 296.605469,160.752151 
	C293.809692,162.371887 290.898926,163.170425 288.874451,164.967468 
	C286.583710,167.000839 285.202576,170.023422 283.222992,172.450348 
	C279.222046,177.355453 275.083954,182.148682 271.002441,186.988052 
z"/>
<path fill="#4062F7" opacity="1.000000" stroke="none" 
	d="
M225.221771,207.623993 
	C226.762253,200.360306 228.746506,192.945221 230.305740,185.441833 
	C230.958084,182.302689 230.708313,178.976074 231.269806,175.285919 
	C232.730774,173.675079 233.719727,172.437164 234.864777,171.366135 
	C237.534622,168.868881 240.279572,166.451920 242.994080,164.002441 
	C244.162613,168.224960 246.326859,172.380859 242.977432,176.720230 
	C242.499771,177.339096 243.551773,179.138657 243.973450,180.710114 
	C244.051086,181.028473 244.011749,181.004684 243.921204,181.106262 
	C243.640182,181.422150 243.597137,181.666901 243.701523,181.942108 
	C243.813599,182.268127 243.757477,182.561996 243.209442,183.007172 
	C242.671204,183.396866 242.601257,183.647903 242.675903,183.943695 
	C236.948578,191.774780 231.221237,199.605865 225.221771,207.623993 
z"/>
<path fill="#654AE8" opacity="1.000000" stroke="none" 
	d="
M179.493210,201.476883 
	C193.691406,178.852966 207.890182,156.229416 222.086487,133.604324 
	C223.047913,132.072083 223.990799,130.528244 225.196213,129.145142 
	C223.620422,136.851181 221.790726,144.401886 219.661789,152.111786 
	C215.575348,157.505875 211.788132,162.740753 207.757278,167.761703 
	C205.279770,165.258713 203.627380,166.523117 202.326263,168.550812 
	C198.001099,175.291107 193.847107,182.142487 189.456818,188.839386 
	C186.494141,193.358643 183.243835,197.689331 179.965729,201.946716 
	C179.809265,201.789047 179.493210,201.476883 179.493210,201.476883 
z"/>
<path fill="#12AEE9" opacity="1.000000" stroke="none" 
	d="
M275.977386,292.029572 
	C275.410278,291.191742 274.843170,290.353912 274.127808,289.250366 
	C284.262909,293.425934 290.932312,301.632141 295.284973,311.395020 
	C302.690033,328.004211 301.337433,344.316193 291.247375,359.641785 
	C289.998505,361.538696 288.210449,363.080627 286.304688,364.876343 
	C285.937134,364.965637 285.816956,364.888306 285.872070,364.572144 
	C286.283752,363.495697 286.640381,362.735413 287.278442,361.787750 
	C292.582489,354.934113 295.861877,347.575012 297.028931,338.889923 
	C295.276672,339.412903 294.099762,339.764130 293.624542,339.905975 
	C293.624542,335.515167 293.898529,331.455109 293.525574,327.455383 
	C293.287750,324.904633 291.179565,322.326752 291.481506,319.961670 
	C292.867645,309.106171 287.216827,301.771393 279.769714,294.806519 
	C278.349976,293.731049 277.163666,292.880310 275.977386,292.029572 
z"/>
<path fill="#6B5EEF" opacity="1.000000" stroke="none" 
	d="
M257.260620,94.110863 
	C256.218506,95.782692 254.955338,97.100212 253.850357,98.539185 
	C249.438263,104.284836 245.075348,110.068268 240.290695,115.597107 
	C239.302597,114.430153 238.718018,113.503822 238.133438,112.577492 
	C238.477615,113.253677 238.821793,113.929871 239.165970,114.606056 
	C236.842621,116.029449 234.519272,117.452843 232.171539,118.742249 
	C232.147171,118.608269 232.086090,118.342865 232.086090,118.342865 
	C238.599457,107.702370 245.112839,97.061890 252.164398,85.542221 
	C254.162323,88.881668 255.637283,91.347015 257.260620,94.110863 
z"/>
<path fill="#6553F4" opacity="1.000000" stroke="none" 
	d="
M232.195923,118.876228 
	C234.519272,117.452843 236.842621,116.029449 239.165970,114.606056 
	C238.821793,113.929871 238.477615,113.253677 238.133438,112.577492 
	C238.718018,113.503822 239.302597,114.430153 239.958344,115.674805 
	C237.074249,123.423012 234.118988,130.852890 231.087051,138.642441 
	C224.821777,140.876175 224.197495,146.986282 220.988739,151.748749 
	C220.312881,151.976227 220.136948,151.964417 219.961014,151.952591 
	C221.790726,144.401886 223.620422,136.851181 225.473999,128.959076 
	C225.497864,128.617691 225.501846,128.635742 225.855072,128.552765 
	C227.034424,126.892609 227.860535,125.315414 228.686646,123.738220 
	C228.686646,123.738228 228.812637,123.833458 229.060059,123.682541 
	C229.855850,122.343636 230.404205,121.155647 230.952576,119.967667 
	C231.038895,119.774826 231.125229,119.581985 231.589371,119.178658 
	C231.967194,118.968170 232.195908,118.876221 232.195923,118.876228 
z"/>
<path fill="#382D9F" opacity="1.000000" stroke="none" 
	d="
M162.624649,320.589966 
	C162.212692,321.057648 161.902084,321.043365 161.362091,320.991974 
	C161.118637,318.620056 161.105682,316.261505 161.268158,313.193054 
	C161.570190,311.652100 161.696808,310.821045 161.823456,309.989990 
	C162.498413,305.907898 163.173370,301.825806 163.901840,297.361115 
	C165.360291,293.708527 166.765213,290.438507 168.477325,287.026367 
	C167.485184,290.927399 165.676865,294.887543 165.000671,299.032410 
	C163.863358,306.003723 163.445435,313.092438 162.624649,320.589966 
z"/>
<path fill="#382D9F" opacity="1.000000" stroke="none" 
	d="
M139.311386,305.379639 
	C139.619843,305.125488 139.833923,305.326172 140.198608,305.971924 
	C140.562759,306.606506 140.760529,306.817810 140.995728,306.994049 
	C143.376221,315.329346 145.756729,323.664673 148.127533,332.399658 
	C145.168655,323.792145 142.219452,314.784912 139.311386,305.379639 
z"/>
<path fill="#3C2CB8" opacity="1.000000" stroke="none" 
	d="
M140.185226,275.379242 
	C140.235413,281.065277 140.094421,287.099152 139.953110,293.609070 
	C139.910690,297.297607 139.868576,300.510071 139.549683,303.875977 
	C139.175537,302.966827 139.078171,301.904205 138.986816,300.136414 
	C138.815536,298.655182 138.638245,297.879089 138.460953,297.102997 
	C138.387344,293.683044 138.313736,290.263062 138.455322,286.106201 
	C138.756241,284.544098 138.841949,283.718933 138.927658,282.893738 
	C139.283112,280.504852 139.638565,278.115967 140.185226,275.379242 
z"/>
<path fill="#3C2CB8" opacity="1.000000" stroke="none" 
	d="
M149.686951,250.215622 
	C149.974747,250.489090 149.970352,250.930252 149.763382,251.997528 
	C148.943680,254.370895 148.326569,256.118195 147.437103,258.011230 
	C146.717560,259.055725 146.270386,259.954468 145.655792,261.132538 
	C145.236893,262.241913 144.985428,263.071930 144.733948,263.901978 
	C143.514374,266.844269 142.294785,269.786560 140.803833,272.897461 
	C143.486557,265.505127 146.440659,257.944244 149.686951,250.215622 
z"/>
<path fill="#17ABC8" opacity="1.000000" stroke="none" 
	d="
M331.040100,279.960510 
	C327.304077,274.962585 323.672882,269.869476 320.086670,264.327942 
	C320.131683,263.879456 320.359100,263.668396 320.613983,263.871216 
	C323.541473,267.121735 326.214081,270.169495 328.958313,273.557220 
	C329.804657,275.822998 330.579437,277.748779 331.354218,279.674530 
	C331.354218,279.674530 331.144958,279.865356 331.040100,279.960510 
z"/>
<path fill="#23A1F4" opacity="1.000000" stroke="none" 
	d="
M294.347992,228.956055 
	C290.849365,224.331299 287.350739,219.706528 283.666565,214.802002 
	C283.481018,214.522247 283.798096,214.215546 284.238159,214.239716 
	C285.812653,215.513290 286.947113,216.762711 288.252380,218.295670 
	C290.652740,221.985428 292.882294,225.391617 294.917542,228.821259 
	C294.723236,228.844711 294.347992,228.956055 294.347992,228.956055 
z"/>
<path fill="#382D9F" opacity="1.000000" stroke="none" 
	d="
M166.971390,342.597778 
	C165.502441,337.556244 164.015976,332.108032 162.714325,326.347595 
	C164.250732,331.420563 165.602310,336.805847 166.971390,342.597778 
z"/>
<path fill="#17ABC8" opacity="1.000000" stroke="none" 
	d="
M320.017700,263.984680 
	C317.191956,260.444000 314.480164,256.798096 311.750122,252.703506 
	C311.731873,252.254791 312.047089,251.943146 312.322327,252.078506 
	C313.397552,253.139709 314.197571,254.065552 315.161255,255.284729 
	C317.003021,258.274872 318.681061,260.971619 320.359100,263.668396 
	C320.359100,263.668396 320.131683,263.879456 320.017700,263.984680 
z"/>
<path fill="#382D9F" opacity="1.000000" stroke="none" 
	d="
M176.089111,367.439789 
	C176.275406,366.287415 176.600525,365.423706 176.992157,364.219666 
	C178.985413,365.994476 180.912125,368.109558 182.838852,370.224670 
	C182.476013,370.676636 182.113190,371.128601 181.750366,371.580566 
	C179.909546,370.296509 178.068741,369.012482 176.089111,367.439789 
z"/>
<path fill="#0E66F2" opacity="1.000000" stroke="none" 
	d="
M238.962753,377.017273 
	C239.588501,377.693420 240.214233,378.369598 240.930374,379.305786 
	C237.028412,378.032013 233.036041,376.498230 228.948944,374.562622 
	C228.854248,374.160767 229.082718,373.883759 229.430222,373.986084 
	C232.839401,375.064728 235.901077,376.040985 238.962753,377.017273 
z"/>
<path fill="#382D9F" opacity="1.000000" stroke="none" 
	d="
M148.728455,332.796722 
	C150.610580,335.899597 152.305817,339.031494 154.030640,342.526520 
	C152.109406,339.800507 150.158615,336.711395 148.189819,333.263977 
	C148.171829,332.905701 148.541550,332.825745 148.728455,332.796722 
z"/>
<path fill="#5E6AF8" opacity="1.000000" stroke="none" 
	d="
M269.995728,115.586731 
	C268.554932,114.693596 267.083435,113.438202 265.233032,111.713470 
	C264.512787,109.545006 264.171478,107.845886 263.830170,106.146759 
	C263.830170,106.146759 263.983215,106.011559 264.059662,105.943909 
	C266.079071,108.992332 268.022034,112.108406 269.995728,115.586731 
z"/>
<path fill="#382D9F" opacity="1.000000" stroke="none" 
	d="
M167.032028,359.361450 
	C168.904114,360.764832 170.875381,362.487366 172.940887,364.530396 
	C171.067154,363.127441 169.099182,361.404022 167.032028,359.361450 
z"/>
<path fill="#0E66F2" opacity="1.000000" stroke="none" 
	d="
M228.739685,374.299011 
	C226.205734,372.794098 223.786316,371.151001 221.236328,369.200134 
	C221.105728,368.892365 221.229828,368.771973 221.609802,368.822571 
	C224.354095,370.543335 226.718399,372.213562 229.082718,373.883759 
	C229.082718,373.883759 228.854248,374.160767 228.739685,374.299011 
z"/>
<path fill="#17ABC8" opacity="1.000000" stroke="none" 
	d="
M311.572205,252.408478 
	C309.675537,250.260315 307.938599,247.958466 306.202515,245.229401 
	C306.203369,244.802170 306.415466,244.597504 306.686920,244.779236 
	C308.654602,247.288361 310.350861,249.615753 312.047089,251.943146 
	C312.047089,251.943146 311.731873,252.254791 311.572205,252.408478 
z"/>
<path fill="#2E90FA" opacity="1.000000" stroke="none" 
	d="
M268.201416,193.101868 
	C268.909607,191.641663 269.729858,190.523163 270.953918,189.469315 
	C271.259369,191.339142 271.161011,193.144318 271.014984,194.994705 
	C270.967285,195.039917 270.873840,195.132370 270.703125,195.174026 
	C270.532379,195.215683 270.212555,195.361481 270.085907,195.292511 
	C269.959259,195.223541 269.701965,195.093094 269.701965,195.093094 
	C269.239136,194.543243 268.776306,193.993393 268.201416,193.101868 
z"/>
<path fill="#12AEE9" opacity="1.000000" stroke="none" 
	d="
M275.375854,373.993408 
	C275.657349,372.943787 276.285431,371.832123 277.368958,370.389069 
	C278.849640,369.980682 279.874908,369.903687 280.936035,369.885010 
	C280.971893,369.943390 281.052185,370.054382 281.052185,370.054382 
	C279.275604,371.346680 277.499054,372.639008 275.375854,373.993408 
z"/>
<path fill="#382D9F" opacity="1.000000" stroke="none" 
	d="
M156.162170,346.280151 
	C157.751236,347.980713 159.398621,350.013397 161.079117,352.394348 
	C159.481659,350.699158 157.851074,348.655670 156.162170,346.280151 
z"/>
<path fill="#23A1F4" opacity="1.000000" stroke="none" 
	d="
M326.336853,204.692291 
	C327.907166,207.201508 329.477478,209.710709 330.987061,212.646301 
	C330.926300,213.072662 330.771790,213.215088 330.582611,213.142532 
	C330.393433,213.069977 330.005463,212.950516 329.847870,212.648865 
	C328.411285,209.932098 327.132294,207.516983 325.974854,205.000229 
	C326.096375,204.898590 326.336853,204.692291 326.336853,204.692291 
z"/>
<path fill="#08BFE1" opacity="1.000000" stroke="none" 
	d="
M335.466156,219.475449 
	C336.697113,221.324203 337.928040,223.172958 339.288879,225.332306 
	C339.418793,225.642899 339.125641,225.877213 338.735046,225.792328 
	C337.246246,225.110870 336.148041,224.514282 335.039673,223.534821 
	C334.979156,222.124542 334.928833,221.097137 335.030029,219.925720 
	C335.181549,219.781708 335.466156,219.475449 335.466156,219.475449 
z"/>
<path fill="#382D9F" opacity="1.000000" stroke="none" 
	d="
M172.697876,355.694336 
	C171.477646,353.623138 170.248657,351.196320 168.999969,348.400818 
	C170.216568,350.467651 171.452835,352.903198 172.697876,355.694336 
z"/>
<path fill="#654AE8" opacity="1.000000" stroke="none" 
	d="
M179.979813,204.982452 
	C178.936707,205.611221 177.893585,206.240005 176.556564,206.950974 
	C177.186050,205.332275 178.109467,203.631393 179.263046,201.703705 
	C179.493210,201.476883 179.809265,201.789047 179.933197,202.304703 
	C180.031372,203.541061 180.005600,204.261749 179.979813,204.982452 
z"/>
<path fill="#17ABC8" opacity="1.000000" stroke="none" 
	d="
M300.083038,236.917221 
	C298.881317,235.396957 297.679565,233.876694 296.461426,231.969177 
	C296.445007,231.581940 296.586243,231.444244 296.829224,231.652374 
	C298.206055,233.416946 299.339874,234.973404 300.375793,236.626434 
	C300.277893,236.723038 300.083038,236.917221 300.083038,236.917221 
z"/>
<path fill="#654AE8" opacity="1.000000" stroke="none" 
	d="
M228.425812,123.928734 
	C227.860535,125.315414 227.034424,126.892609 225.860260,128.545761 
	C226.396484,127.120895 227.280746,125.620071 228.425812,123.928734 
z"/>
<path fill="#23A1F4" opacity="1.000000" stroke="none" 
	d="
M322.355774,198.663116 
	C323.426392,199.992111 324.333649,201.463455 325.222961,203.365891 
	C325.205017,203.796967 324.945648,204.046188 324.718628,203.813049 
	C323.618011,202.085266 322.744415,200.590637 321.870819,199.096024 
	C321.870819,199.096024 322.192413,198.805466 322.355774,198.663116 
z"/>
<path fill="#382D9F" opacity="1.000000" stroke="none" 
	d="
M168.682861,346.710968 
	C168.093491,345.927887 167.536392,344.810608 166.985489,343.351929 
	C167.566162,344.132599 168.140656,345.254700 168.682861,346.710968 
z"/>
<path fill="#17ABC8" opacity="1.000000" stroke="none" 
	d="
M303.013184,240.990936 
	C302.114532,239.829544 301.215881,238.668137 300.200134,237.211975 
	C300.083038,236.917221 300.277893,236.723038 300.628815,236.823456 
	C301.793121,238.154510 302.606506,239.385117 303.318054,240.709351 
	C303.216217,240.802979 303.013184,240.990936 303.013184,240.990936 
z"/>
<path fill="#08BFE1" opacity="1.000000" stroke="none" 
	d="
M333.144623,215.867615 
	C333.812592,216.889038 334.480560,217.910461 335.307373,219.203674 
	C335.466156,219.475449 335.181549,219.781708 334.782349,219.712036 
	C333.862091,218.464279 333.341003,217.286224 332.903259,216.050995 
	C332.986633,215.993805 333.144623,215.867599 333.144623,215.867615 
z"/>
<path fill="#12AEE9" opacity="1.000000" stroke="none" 
	d="
M271.950256,287.673218 
	C270.965790,287.965485 269.887054,287.982666 268.403442,287.997437 
	C267.999847,287.814941 268.001129,287.634949 268.006897,287.184814 
	C269.292908,287.075836 270.574402,287.237000 271.950256,287.673218 
z"/>
<path fill="#382D9F" opacity="1.000000" stroke="none" 
	d="
M175.109100,360.606903 
	C174.477295,359.835480 173.802017,358.718994 173.074356,357.270447 
	C173.703201,358.046234 174.384415,359.154022 175.109100,360.606903 
z"/>
<path fill="#654AE8" opacity="1.000000" stroke="none" 
	d="
M230.682205,120.146729 
	C230.404205,121.155647 229.855850,122.343636 228.984406,123.659943 
	C229.244812,122.634117 229.828323,121.479965 230.682205,120.146729 
z"/>
<path fill="#4557FA" opacity="1.000000" stroke="none" 
	d="
M212.340912,224.959595 
	C212.630783,224.183350 213.233215,223.320129 214.166977,222.376938 
	C213.883362,223.155518 213.268417,224.014053 212.340912,224.959595 
z"/>
<path fill="#382D9F" opacity="1.000000" stroke="none" 
	d="
M154.140961,343.260864 
	C154.740356,343.717194 155.373871,344.481903 156.037216,345.565552 
	C155.436401,345.112732 154.805725,344.341003 154.140961,343.260864 
z"/>
<path fill="#5E6AF8" opacity="1.000000" stroke="none" 
	d="
M271.812286,117.687546 
	C271.289978,117.500717 270.741943,117.021172 270.125488,116.262222 
	C270.633575,116.453499 271.210083,116.924164 271.812286,117.687546 
z"/>
<path fill="#382D9F" opacity="1.000000" stroke="none" 
	d="
M162.768494,354.589661 
	C163.293289,354.795227 163.931580,355.262543 164.543228,356.067078 
	C163.971710,355.886658 163.426849,355.369049 162.768494,354.589661 
z"/>
<path fill="#6B5EEF" opacity="1.000000" stroke="none" 
	d="
M258.731873,96.750465 
	C258.317200,96.430023 257.882324,95.838669 257.508972,94.955017 
	C257.950928,95.268333 258.331299,95.873947 258.731873,96.750465 
z"/>
<path fill="#23A1F4" opacity="1.000000" stroke="none" 
	d="
M331.004272,213.002197 
	C331.512390,213.475906 331.942535,214.020050 332.345459,214.823410 
	C332.318268,215.082626 332.022949,215.183929 331.791504,214.991669 
	C331.297302,214.271286 331.034546,213.743179 330.771790,213.215088 
	C330.771790,213.215088 330.926300,213.072662 331.004272,213.002197 
z"/>
<path fill="#382D9F" opacity="1.000000" stroke="none" 
	d="
M169.085373,286.587585 
	C169.225082,285.863495 169.605988,284.978455 170.260803,283.969513 
	C170.132004,284.705933 169.729279,285.566254 169.085373,286.587585 
z"/>
<path fill="#17ABC8" opacity="1.000000" stroke="none" 
	d="
M304.543213,243.381378 
	C304.057129,242.779465 303.571014,242.177567 303.049072,241.283295 
	C303.013184,240.990936 303.216217,240.802979 303.539062,240.894775 
	C304.286499,241.615692 304.711121,242.244827 304.988159,243.001465 
	C304.840607,243.128983 304.543213,243.381378 304.543213,243.381378 
z"/>
<path fill="#382D9F" opacity="1.000000" stroke="none" 
	d="
M138.375092,297.407227 
	C138.638245,297.879089 138.815536,298.655182 138.976715,299.734619 
	C138.736816,299.262482 138.513031,298.486938 138.375092,297.407227 
z"/>
<path fill="#382D9F" opacity="1.000000" stroke="none" 
	d="
M138.726685,283.144836 
	C138.841949,283.718933 138.756241,284.544098 138.522614,285.645020 
	C138.425034,285.079163 138.475388,284.237549 138.726685,283.144836 
z"/>
<path fill="#17ABC8" opacity="1.000000" stroke="none" 
	d="
M294.393311,229.207504 
	C294.347992,228.956055 294.723236,228.844711 294.939514,228.892212 
	C295.155823,228.939728 295.173523,229.085022 295.213409,229.312622 
	C295.326080,229.839813 295.436371,230.124893 295.532654,230.445541 
	C295.481201,230.495621 295.377747,230.595276 295.377747,230.595276 
	C295.064697,230.216507 294.751648,229.837723 294.393311,229.207504 
z"/>
<path fill="#483AE5" opacity="1.000000" stroke="none" 
	d="
M196.146835,247.554993 
	C196.177734,247.228455 196.462326,246.792084 196.974976,246.219803 
	C196.935547,246.537643 196.668045,246.991394 196.146835,247.554993 
z"/>
<path fill="#4557FA" opacity="1.000000" stroke="none" 
	d="
M209.474564,227.320114 
	C209.644943,226.979599 210.157990,226.608200 210.991608,226.179855 
	C210.813858,226.511688 210.315552,226.900452 209.474564,227.320114 
z"/>
<path fill="#17ABC8" opacity="1.000000" stroke="none" 
	d="
M306.096924,244.904053 
	C305.578644,244.638947 305.166870,244.271973 304.649170,243.643188 
	C304.543213,243.381378 304.840607,243.128983 305.173065,243.079437 
	C305.505524,243.029892 305.897675,243.117966 305.972473,243.368301 
	C306.169983,243.944931 306.292725,244.271225 306.415466,244.597504 
	C306.415466,244.597504 306.203369,244.802170 306.096924,244.904053 
z"/>
<path fill="#426FFB" opacity="1.000000" stroke="none" 
	d="
M253.666656,173.453522 
	C254.025299,173.585968 254.415115,174.028564 254.875946,174.762604 
	C254.530594,174.623947 254.114197,174.193817 253.666656,173.453522 
z"/>
<path fill="#382D9F" opacity="1.000000" stroke="none" 
	d="
M161.335236,353.158386 
	C161.683105,353.210693 162.130890,353.525391 162.684418,354.104065 
	C162.338501,354.052307 161.886826,353.736542 161.335236,353.158386 
z"/>
<path fill="#3689FA" opacity="1.000000" stroke="none" 
	d="
M292.341064,150.478455 
	C292.028259,150.339233 291.627258,149.915359 291.153442,149.200531 
	C291.471375,149.337631 291.862152,149.765717 292.341064,150.478455 
z"/>
<path fill="#382D9F" opacity="1.000000" stroke="none" 
	d="
M165.598251,357.611084 
	C165.951126,357.710083 166.385864,358.093903 166.888031,358.771423 
	C166.530334,358.675415 166.105225,358.285645 165.598251,357.611084 
z"/>
<path fill="#12AEE9" opacity="1.000000" stroke="none" 
	d="
M284.049927,367.043884 
	C283.877655,367.326630 283.705353,367.609375 283.267944,367.947968 
	C283.002838,368.003815 282.957031,367.957397 283.086609,367.755920 
	C283.419830,367.301697 283.666565,367.102112 283.979370,366.978210 
	C284.002411,367.000641 284.049957,367.043884 284.049927,367.043884 
z"/>
<path fill="#3689FA" opacity="1.000000" stroke="none" 
	d="
M271.058472,196.976654 
	C270.844635,196.733307 270.599945,196.498413 270.300964,196.005127 
	C270.246643,195.746719 270.262390,195.733658 270.361938,195.761612 
	C270.461456,195.789566 270.670502,195.795593 270.776794,196.082703 
	C270.949341,196.562912 271.015564,196.755981 271.081787,196.949036 
	C271.081787,196.949036 271.027588,196.985123 271.058472,196.976654 
z"/>
<path fill="#12AEE9" opacity="1.000000" stroke="none" 
	d="
M285.995117,365.007385 
	C285.881439,365.332123 285.709778,365.615051 285.270264,365.950867 
	C285.002380,366.003754 284.952118,365.953827 285.069702,365.755524 
	C285.370300,365.308929 285.580170,365.085938 285.816956,364.888306 
	C285.816956,364.888306 285.937134,364.965637 285.995117,365.007385 
z"/>
<path fill="#12AEE9" opacity="1.000000" stroke="none" 
	d="
M285.026855,366.029358 
	C284.879578,366.335999 284.707764,366.617035 284.292969,366.971008 
	C284.049957,367.043884 284.002411,367.000641 284.110229,366.778503 
	C284.423065,366.307220 284.667755,366.106354 284.952118,365.953827 
	C284.952118,365.953827 285.002380,366.003754 285.026855,366.029358 
z"/>
<path fill="#12AEE9" opacity="1.000000" stroke="none" 
	d="
M283.025269,368.027466 
	C282.880981,368.336945 282.714264,368.622742 282.277344,368.958191 
	C282.007080,369.007812 281.955627,368.954071 282.089111,368.756409 
	C282.427612,368.309723 282.672424,368.109283 282.957031,367.957397 
	C282.957031,367.957397 283.002838,368.003815 283.025269,368.027466 
z"/>
<path fill="#4557FA" opacity="1.000000" stroke="none" 
	d="
M214.569138,222.320801 
	C214.457825,222.123474 214.614258,221.780243 214.970947,221.234802 
	C215.059769,221.413361 214.948334,221.794144 214.569138,222.320801 
z"/>
<path fill="#12AEE9" opacity="1.000000" stroke="none" 
	d="
M282.032532,369.034912 
	C281.886200,369.344849 281.714355,369.627655 281.297363,369.982422 
	C281.052185,370.054382 280.971893,369.943390 281.092163,369.717224 
	C281.432281,369.273499 281.679993,369.094482 281.955627,368.954071 
	C281.955627,368.954071 282.007080,369.007812 282.032532,369.034912 
z"/>
<path fill="#08BFE1" opacity="1.000000" stroke="none" 
	d="
M332.022949,215.183929 
	C332.022949,215.183929 332.318268,215.082626 332.470947,215.051346 
	C332.750000,215.137085 332.876343,215.254089 333.073669,215.619354 
	C333.144623,215.867599 332.986633,215.993805 332.755524,215.909760 
	C332.331421,215.631973 332.164276,215.418045 332.022949,215.183929 
z"/>
<path fill="#23A1F4" opacity="1.000000" stroke="none" 
	d="
M325.336487,203.674225 
	C325.713959,203.770233 325.959991,203.988983 326.271423,204.450012 
	C326.336853,204.692291 326.096375,204.898590 325.805054,204.840958 
	C325.293549,204.561340 325.104187,204.315628 324.945648,204.046188 
	C324.945648,204.046188 325.205017,203.796967 325.336487,203.674225 
z"/>
<path fill="#382D9F" opacity="1.000000" stroke="none" 
	d="
M164.695953,356.574738 
	C164.890671,356.516479 165.184113,356.710266 165.580734,357.154724 
	C165.387497,357.212524 165.091095,357.019653 164.695953,356.574738 
z"/>
<path fill="#17ABC8" opacity="1.000000" stroke="none" 
	d="
M296.373840,231.650223 
	C296.048950,231.503723 295.795258,231.288956 295.459656,230.834732 
	C295.377747,230.595276 295.481201,230.495621 295.601929,230.466827 
	C295.722656,230.438049 295.859344,230.380188 296.054321,230.637146 
	C296.361633,231.077484 296.473938,231.260864 296.586243,231.444244 
	C296.586243,231.444244 296.445007,231.581940 296.373840,231.650223 
z"/>
<path fill="#483AE5" opacity="1.000000" stroke="none" 
	d="
M198.226685,245.146271 
	C198.270615,245.158417 198.190720,245.243088 198.172546,245.263565 
	C198.154373,245.284042 198.182770,245.134125 198.226685,245.146271 
z"/>
<path fill="#382D9F" opacity="1.000000" stroke="none" 
	d="
M162.566971,323.700531 
	C162.344437,323.731232 162.289307,323.534180 162.421478,323.216187 
	C162.486359,323.129272 162.611984,323.506775 162.566971,323.700531 
z"/>
<path fill="#3689FA" opacity="1.000000" stroke="none" 
	d="
M269.654053,195.272446 
	C269.701965,195.093094 269.959259,195.223541 270.085388,195.386383 
	C270.211487,195.549240 270.262390,195.733658 270.262390,195.733658 
	C270.262390,195.733658 270.246643,195.746719 270.243286,195.755325 
	C269.958191,195.802612 269.746948,195.698563 269.654053,195.272446 
z"/>
<path fill="#426FFB" opacity="1.000000" stroke="none" 
	d="
M242.856873,183.748154 
	C242.601257,183.647903 242.671204,183.396866 242.998840,183.107758 
	C243.087234,183.200821 243.062546,183.376709 242.856873,183.748154 
z"/>
<path fill="#654AE8" opacity="1.000000" stroke="none" 
	d="
M232.171539,118.742249 
	C232.195908,118.876221 231.967194,118.968170 231.846680,118.993660 
	C231.609604,118.811615 231.636078,118.624344 231.945831,118.400101 
	C232.086090,118.342865 232.147171,118.608269 232.171539,118.742249 
z"/>
<path fill="#426FFB" opacity="1.000000" stroke="none" 
	d="
M243.814941,181.725891 
	C243.597137,181.666901 243.640182,181.422150 243.933716,181.120697 
	C244.036758,181.033554 243.928345,181.509674 243.814941,181.725891 
z"/>
<path fill="#3689FA" opacity="1.000000" stroke="none" 
	d="
M293.053406,151.704956 
	C292.844238,151.705841 292.642303,151.416824 292.354767,150.873703 
	C292.532990,150.884735 292.796814,151.149887 293.053406,151.704956 
z"/>
<path fill="#12AEE9" opacity="1.000000" stroke="none" 
	d="
M273.179565,288.604614 
	C273.000885,288.679565 272.690979,288.503082 272.192749,288.133179 
	C272.352417,288.077606 272.700378,288.215393 273.179565,288.604614 
z"/>
<path fill="#426FFB" opacity="1.000000" stroke="none" 
	d="
M252.859146,172.414246 
	C253.051056,172.375244 253.319244,172.614334 253.724304,173.090088 
	C253.552597,173.115280 253.244019,172.903793 252.859146,172.414246 
z"/>
<path fill="#0476FC" opacity="1.000000" stroke="none" 
	d="
M229.430222,373.986084 
	C226.718399,372.213562 224.354095,370.543335 221.672226,368.762726 
	C221.243073,367.992706 221.131470,367.333130 221.292618,366.124115 
	C223.379196,360.175598 225.602158,354.872314 226.895187,349.351227 
	C228.270813,343.477570 228.729706,337.392059 229.653412,331.409027 
	C231.066147,322.258392 232.534225,313.116272 233.978821,303.970551 
	C236.430161,299.408539 238.881485,294.846558 241.654938,290.132019 
	C241.185944,296.540710 240.123383,303.083466 239.675903,309.668030 
	C239.174210,317.050415 239.252747,324.471344 239.034912,331.874207 
	C238.807602,339.599731 238.332199,347.323975 238.343414,355.048279 
	C238.350327,359.817902 239.133194,364.582153 239.430069,369.357391 
	C239.576416,371.711578 239.410645,374.085205 239.174408,376.733643 
	C235.901077,376.040985 232.839401,375.064728 229.430222,373.986084 
z"/>
<path fill="#5849FE" opacity="1.000000" stroke="none" 
	d="
M219.661789,152.111786 
	C220.136948,151.964417 220.312881,151.976227 220.753052,152.004089 
	C216.394943,167.036926 211.861511,182.081985 207.101593,197.055069 
	C205.456619,202.229568 203.248474,207.225052 201.149902,212.650101 
	C196.880035,216.262939 192.757858,219.527985 188.319183,222.468994 
	C188.333359,219.095276 188.664047,216.045563 189.003601,212.606537 
	C189.828217,209.912994 190.489471,207.539154 191.490158,205.318268 
	C193.982468,199.787003 196.738464,194.373505 199.186386,188.823532 
	C202.230804,181.921112 205.071960,174.929001 208.000916,167.975647 
	C211.788132,162.740753 215.575348,157.505875 219.661789,152.111786 
z"/>
<path fill="#4963FE" opacity="1.000000" stroke="none" 
	d="
M243.023483,163.618271 
	C240.279572,166.451920 237.534622,168.868881 234.864777,171.366135 
	C233.719727,172.437164 232.730774,173.675079 231.338638,174.923996 
	C230.178177,174.114899 229.349976,173.218964 228.258209,172.163879 
	C229.614761,162.597443 231.234879,153.190125 232.943207,143.394440 
	C235.275696,140.251709 237.320999,137.294205 239.843155,134.823486 
	C241.229355,133.465591 243.418564,132.927414 245.619141,132.420654 
	C246.619873,135.893265 242.880310,139.921219 248.004364,142.008041 
	C246.353882,149.083405 244.703384,156.158752 243.023483,163.618271 
z"/>
<path fill="#04C4EB" opacity="1.000000" stroke="none" 
	d="
M331.612183,279.884552 
	C330.579437,277.748779 329.804657,275.822998 329.149597,273.243896 
	C330.569183,271.629761 331.835419,270.618835 333.176300,269.719116 
	C335.606293,268.088684 337.239807,266.159180 336.360413,262.787506 
	C334.801392,263.515381 333.547668,264.100708 332.293945,264.686066 
	C331.852081,264.431641 331.410187,264.177246 330.968323,263.922852 
	C331.700195,262.344391 332.127838,260.502747 333.222107,259.237732 
	C336.279236,255.703659 339.612305,252.408264 343.077271,248.765488 
	C344.046082,248.608917 346.052277,248.284714 348.058441,247.960510 
	C349.494904,249.224777 351.556641,250.211945 352.260773,251.800751 
	C355.489349,259.085907 360.193298,265.778229 359.361237,274.604797 
	C358.959290,278.868500 361.101807,283.353699 361.980316,287.760895 
	C363.217194,293.966278 360.601410,298.848419 356.060425,303.618073 
	C353.802612,299.160492 351.635956,294.882935 349.469330,290.605347 
	C349.177460,290.629456 348.885559,290.653564 348.593689,290.677643 
	C349.001770,294.903351 349.409882,299.129028 349.817963,303.354736 
	C349.138977,303.530701 348.460022,303.706665 347.781036,303.882660 
	C346.761566,301.810760 345.992340,299.552521 344.636169,297.731323 
	C343.705322,296.481293 341.958893,295.838593 340.238770,294.996460 
	C337.223724,290.077179 334.546936,285.085876 331.612183,279.884552 
M358.873108,294.172546 
	C358.870483,292.439514 359.196747,290.603119 358.700745,289.025177 
	C358.506775,288.408173 356.466217,288.371674 355.266693,288.070770 
	C355.133728,289.597198 354.476501,291.360474 355.026642,292.578339 
	C355.503357,293.633759 357.348816,294.070862 358.873108,294.172546 
z"/>
<path fill="#02C4F7" opacity="1.000000" stroke="none" 
	d="
M348.044189,247.575684 
	C346.052277,248.284714 344.046082,248.608917 343.077271,248.765488 
	C339.612305,252.408264 336.279236,255.703659 333.222107,259.237732 
	C332.127838,260.502747 331.700195,262.344391 330.968323,263.922852 
	C331.410187,264.177246 331.852081,264.431641 332.293945,264.686066 
	C333.547668,264.100708 334.801392,263.515381 336.360413,262.787506 
	C337.239807,266.159180 335.606293,268.088684 333.176300,269.719116 
	C331.835419,270.618835 330.569183,271.629761 329.078003,272.903870 
	C326.214081,270.169495 323.541473,267.121735 320.613983,263.871216 
	C318.681061,260.971619 317.003021,258.274872 315.309662,254.955048 
	C317.611755,250.822845 315.667816,246.296677 321.232483,242.826553 
	C327.378662,238.993790 330.570984,230.424179 335.049866,223.917694 
	C336.148041,224.514282 337.246246,225.110870 338.587067,225.907730 
	C341.170624,230.839706 343.511536,235.571411 346.075867,240.834290 
	C346.502716,241.604706 346.732544,241.815109 346.988770,241.996674 
	C347.335846,243.728073 347.682892,245.459488 348.044189,247.575684 
z"/>
<path fill="#04C4EB" opacity="1.000000" stroke="none" 
	d="
M346.847595,241.810104 
	C346.732544,241.815109 346.502716,241.604706 346.160278,241.176956 
	C346.274017,241.173889 346.502380,241.385574 346.847595,241.810104 
z"/>
<path fill="#046FFE" opacity="1.000000" stroke="none" 
	d="
M233.547852,303.974609 
	C232.534225,313.116272 231.066147,322.258392 229.653412,331.409027 
	C228.729706,337.392059 228.270813,343.477570 226.895187,349.351227 
	C225.602158,354.872314 223.379196,360.175598 221.274933,365.787476 
	C214.298859,361.296936 211.794281,353.758331 208.527176,346.874054 
	C207.702744,345.136841 208.817978,341.926483 209.959305,339.913208 
	C213.295197,334.028656 217.338440,328.540466 220.586670,322.613190 
	C221.815399,320.371063 221.627930,317.352814 222.710907,315.044464 
	C223.819183,312.674988 225.520844,310.398468 225.909790,307.916260 
	C226.673630,303.041443 230.161057,304.232300 233.547852,303.974609 
z"/>
<path fill="#02A0FC" opacity="1.000000" stroke="none" 
	d="
M282.089111,368.756409 
	C281.679993,369.094482 281.432281,369.273499 281.056305,369.658875 
	C279.874908,369.903687 278.849640,369.980682 277.440948,370.077087 
	C277.814301,367.006866 277.456482,364.459290 276.058228,361.232574 
	C274.191010,356.923645 274.486969,351.625061 274.114014,346.731659 
	C273.320404,336.319092 272.858582,325.879333 271.946838,315.478241 
	C271.248230,307.509094 273.041931,300.047516 275.774719,292.339233 
	C277.163666,292.880310 278.349976,293.731049 279.759094,295.206573 
	C279.654755,301.106293 278.795654,306.413605 279.114624,311.649170 
	C279.718445,321.560608 281.739502,331.429535 281.757355,341.318665 
	C281.771027,348.894379 283.447601,355.545197 286.997009,361.975128 
	C286.640381,362.735413 286.283752,363.495697 285.872070,364.572144 
	C285.580170,365.085938 285.370300,365.308929 285.069702,365.755524 
	C284.667755,366.106354 284.423065,366.307220 284.087219,366.756104 
	C283.666565,367.102112 283.419830,367.301697 283.086609,367.755920 
	C282.672424,368.109283 282.427612,368.309723 282.089111,368.756409 
z"/>
<path fill="#583CFD" opacity="1.000000" stroke="none" 
	d="
M188.994720,212.995850 
	C188.664047,216.045563 188.333359,219.095276 188.004364,222.577362 
	C187.299530,228.518890 184.968384,233.057632 180.646927,236.726547 
	C177.427063,239.460251 174.632614,242.695023 171.050720,245.676025 
	C169.628235,244.090790 168.803741,242.536148 167.979248,240.981506 
	C169.936874,236.886353 171.894501,232.791199 174.236481,228.226990 
	C179.412155,222.837250 184.203445,217.916550 188.994720,212.995850 
z"/>
<path fill="#5A30F7" opacity="1.000000" stroke="none" 
	d="
M167.613846,241.009674 
	C168.803741,242.536148 169.628235,244.090790 170.744324,245.827789 
	C170.044540,248.436066 169.053146,250.862015 168.032104,253.651474 
	C163.115112,256.671173 158.309967,259.497833 153.305008,261.909912 
	C150.883820,263.076782 148.087418,263.465118 145.097427,264.053955 
	C144.985428,263.071930 145.236893,262.241913 145.976410,261.110901 
	C146.879471,259.828461 147.294464,258.846954 147.709457,257.865479 
	C148.326569,256.118195 148.943680,254.370895 149.731995,252.328430 
	C153.399460,249.796707 156.890274,247.551605 160.393890,245.326675 
	C162.669083,243.881851 164.962952,242.466446 167.613846,241.009674 
z"/>
<path fill="#3C2CB8" opacity="1.000000" stroke="none" 
	d="
M161.665924,310.264099 
	C161.696808,310.821045 161.570190,311.652100 161.271179,312.750580 
	C161.235336,312.191406 161.371872,311.364777 161.665924,310.264099 
z"/>
<path fill="#3C2CB8" opacity="1.000000" stroke="none" 
	d="
M140.881592,306.810425 
	C140.760529,306.817810 140.562759,306.606506 140.304367,306.167236 
	C140.413620,306.174316 140.600677,306.391846 140.881592,306.810425 
z"/>
<path fill="#0FB6F8" opacity="1.000000" stroke="none" 
	d="
M296.829224,231.652374 
	C296.473938,231.260864 296.361633,231.077484 296.033691,230.457092 
	C295.603180,229.708389 295.388367,229.396713 295.173523,229.085022 
	C295.173523,229.085022 295.155823,228.939728 295.133820,228.868774 
	C292.882294,225.391617 290.652740,221.985428 288.619873,218.301697 
	C291.464874,219.379745 294.113281,220.735336 296.204529,221.805756 
	C297.515625,218.924072 298.847412,215.996933 300.833557,211.631592 
	C299.612915,206.183014 301.828552,204.090500 310.227020,205.050003 
	C310.227020,205.050003 310.842926,195.535721 310.838348,195.606506 
	C312.410828,197.017242 314.022430,198.463074 315.634033,199.908905 
	C315.957397,199.600052 316.280731,199.291183 316.604065,198.982330 
	C316.073517,196.961685 315.542999,194.941040 315.012451,192.920395 
	C317.112671,194.856583 319.212860,196.792770 321.591949,198.912491 
	C322.744415,200.590637 323.618011,202.085266 324.718628,203.813049 
	C325.104187,204.315628 325.293549,204.561340 325.683502,204.942596 
	C327.132294,207.516983 328.411285,209.932098 329.457397,212.665710 
	C327.985596,213.327377 326.254425,213.267868 325.589600,214.080643 
	C321.950104,218.530136 318.367310,223.055801 315.161224,227.821823 
	C311.837860,232.762115 308.966644,238.006561 305.897675,243.117981 
	C305.897675,243.117966 305.505524,243.029892 305.320618,242.951935 
	C304.711121,242.244827 304.286499,241.615692 303.640869,240.801147 
	C302.606506,239.385117 301.793121,238.154510 300.726746,236.726868 
	C299.339874,234.973404 298.206055,233.416946 296.829224,231.652374 
z"/>
<path fill="#18AAFD" opacity="1.000000" stroke="none" 
	d="
M314.986694,192.554596 
	C315.542999,194.941040 316.073517,196.961685 316.604065,198.982330 
	C316.280731,199.291183 315.957397,199.600052 315.634033,199.908905 
	C314.022430,198.463074 312.410828,197.017242 310.838348,195.606506 
	C310.842926,195.535721 310.227020,205.050003 310.227020,205.050003 
	C301.828552,204.090500 299.612915,206.183014 300.833557,211.631592 
	C298.847412,215.996933 297.515625,218.924072 296.204529,221.805756 
	C294.113281,220.735336 291.464874,219.379745 288.449036,218.018127 
	C286.947113,216.762711 285.812653,215.513290 284.401703,214.091705 
	C283.644653,208.576935 286.785095,204.657318 289.713531,200.878281 
	C293.535339,195.946411 297.753174,191.300735 302.052795,186.771301 
	C303.516144,185.229752 305.497009,184.334198 307.448883,187.045273 
	C308.060608,187.894928 310.549500,187.393112 313.321838,187.591782 
	C313.606171,188.389221 314.283569,190.289017 314.986694,192.554596 
z"/>
<path fill="#2697FC" opacity="1.000000" stroke="none" 
	d="
M271.062683,194.949493 
	C271.161011,193.144318 271.259369,191.339142 271.165405,189.260376 
	C270.980194,188.542801 270.987274,188.098801 270.998383,187.321442 
	C275.083954,182.148682 279.222046,177.355453 283.222992,172.450348 
	C285.202576,170.023422 286.583710,167.000839 288.874451,164.967468 
	C290.898926,163.170425 293.809692,162.371887 296.660583,161.078461 
	C299.193024,163.504440 299.421265,165.295059 297.962769,169.070160 
	C293.856415,179.698578 284.011627,186.526505 280.531342,197.451035 
	C279.689026,200.095154 276.379028,201.979538 273.266571,197.769897 
	C272.333557,196.484558 271.698120,195.717026 271.062683,194.949493 
z"/>
<path fill="#2E90FA" opacity="1.000000" stroke="none" 
	d="
M271.014984,194.994705 
	C271.698120,195.717026 272.333557,196.484558 273.016479,197.567688 
	C272.559906,197.667007 272.055878,197.450714 271.316803,197.091736 
	C271.015564,196.755981 270.949341,196.562912 270.845764,195.923218 
	C270.808411,195.476608 270.873840,195.132370 270.873840,195.132370 
	C270.873840,195.132370 270.967285,195.039917 271.014984,194.994705 
z"/>
<path fill="#5370FD" opacity="1.000000" stroke="none" 
	d="
M248.288925,141.826752 
	C242.880310,139.921219 246.619873,135.893265 245.996582,132.413269 
	C249.733353,125.303284 250.903976,117.106453 257.749634,112.181274 
	C258.593353,111.574265 258.886627,109.819748 258.942108,108.575020 
	C259.080414,105.472839 260.506683,104.824913 263.494324,106.036469 
	C264.171478,107.845886 264.512787,109.545006 264.927612,111.607491 
	C264.499878,112.818695 263.403290,113.833115 263.586884,114.489365 
	C266.296570,124.174828 256.574677,129.207428 255.084915,137.655289 
	C252.858643,139.218811 250.716064,140.432129 248.288925,141.826752 
z"/>
<path fill="#6340FA" opacity="1.000000" stroke="none" 
	d="
M189.003601,212.606537 
	C184.203445,217.916550 179.412155,222.837250 174.310471,227.876526 
	C175.347961,224.136154 176.863800,220.325607 177.993896,216.403885 
	C179.013077,212.867035 179.609940,209.208481 180.186432,205.293030 
	C180.005600,204.261749 180.031372,203.541061 180.089676,202.462372 
	C183.243835,197.689331 186.494141,193.358643 189.456818,188.839386 
	C193.847107,182.142487 198.001099,175.291107 202.326263,168.550812 
	C203.627380,166.523117 205.279770,165.258713 207.757263,167.761688 
	C205.071960,174.929001 202.230804,181.921112 199.186386,188.823532 
	C196.738464,194.373505 193.982468,199.787003 191.490158,205.318268 
	C190.489471,207.539154 189.828217,209.912994 189.003601,212.606537 
z"/>
<path fill="#01ABFC" opacity="1.000000" stroke="none" 
	d="
M287.278473,361.787750 
	C283.447601,355.545197 281.771027,348.894379 281.757355,341.318665 
	C281.739502,331.429535 279.718445,321.560608 279.114624,311.649170 
	C278.795654,306.413605 279.654755,301.106293 279.992554,295.431305 
	C287.216827,301.771393 292.867645,309.106171 291.481506,319.961670 
	C291.179565,322.326752 293.287750,324.904633 293.525574,327.455383 
	C293.898529,331.455109 293.624542,335.515167 293.624542,339.905975 
	C294.099762,339.764130 295.276672,339.412903 297.028931,338.889923 
	C295.861877,347.575012 292.582489,354.934113 287.278473,361.787750 
z"/>
<path fill="#522FE5" opacity="1.000000" stroke="none" 
	d="
M147.437103,258.011230 
	C147.294464,258.846954 146.879471,259.828461 146.143829,260.831573 
	C146.270386,259.954468 146.717560,259.055725 147.437103,258.011230 
z"/>
<path fill="#0ABEF9" opacity="1.000000" stroke="none" 
	d="
M305.972473,243.368317 
	C308.966644,238.006561 311.837860,232.762115 315.161224,227.821823 
	C318.367310,223.055801 321.950104,218.530136 325.589600,214.080643 
	C326.254425,213.267868 327.985596,213.327377 329.614990,212.967377 
	C330.005463,212.950516 330.393433,213.069977 330.582611,213.142532 
	C331.034546,213.743179 331.297302,214.271286 331.791504,214.991669 
	C332.164276,215.418045 332.331421,215.631973 332.672150,215.966934 
	C333.341003,217.286224 333.862091,218.464279 334.630859,219.856049 
	C334.928833,221.097137 334.979156,222.124542 335.039673,223.534821 
	C330.570984,230.424179 327.378662,238.993790 321.232483,242.826553 
	C315.667816,246.296677 317.611755,250.822845 315.145935,254.661713 
	C314.197571,254.065552 313.397552,253.139709 312.322327,252.078506 
	C310.350861,249.615753 308.654602,247.288361 306.686920,244.779236 
	C306.292725,244.271225 306.169983,243.944931 305.972473,243.368317 
z"/>
<path fill="#2697FC" opacity="1.000000" stroke="none" 
	d="
M270.703125,195.174026 
	C270.873840,195.132370 270.808411,195.476608 270.739441,195.636108 
	C270.670502,195.795593 270.461456,195.789566 270.361938,195.761612 
	C270.262390,195.733658 270.211487,195.549240 270.212036,195.455353 
	C270.212555,195.361481 270.532379,195.215683 270.703125,195.174026 
z"/>
<path fill="#23A1F4" opacity="1.000000" stroke="none" 
	d="
M295.213409,229.312622 
	C295.388367,229.396713 295.603180,229.708389 295.838684,230.200134 
	C295.859344,230.380188 295.722656,230.438049 295.653381,230.416748 
	C295.436371,230.124893 295.326080,229.839813 295.213409,229.312622 
z"/>
<path fill="#08BFE1" opacity="1.000000" stroke="none" 
	d="
M358.731201,294.476898 
	C357.348816,294.070862 355.503357,293.633759 355.026642,292.578339 
	C354.476501,291.360474 355.133728,289.597198 355.266693,288.070770 
	C356.466217,288.371674 358.506775,288.408173 358.700745,289.025177 
	C359.196747,290.603119 358.870483,292.439514 358.731201,294.476898 
z"/>
</svg>